HIERARCHY
ROOT Hips
{
  OFFSET 5.72205e-005 65.662 3.42586
  CHANNELS 6 Xposition Yposition Zposition Zrotation Xrotation Yrotation
  JOINT Chest
  {
    OFFSET 0 8.7983 -4.7612
    CHANNELS 6 Xposition Yposition Zposition Zrotation Xrotation Yrotation
    JOINT Chest2
    {
      OFFSET 0 8.0291 0.4195
      CHANNELS 6 Xposition Yposition Zposition Zrotation Xrotation Yrotation
      JOINT Chest3
      {
        OFFSET 0 9.9351 -2.2114
        CHANNELS 6 Xposition Yposition Zposition Zrotation Xrotation Yrotation
        JOINT Neck
        {
          OFFSET 0 22.3885 -0.4656
          CHANNELS 6 Xposition Yposition Zposition Zrotation Xrotation Yrotation
          JOINT Head
          {
            OFFSET -0.0001 12.643 3.4389
            CHANNELS 6 Xposition Yposition Zposition Zrotation Xrotation Yrotation
            End Site
            {
              OFFSET 0.0001 17.6655 0.5274
            }
          }
        }
        JOINT LeftCollar
        {
          OFFSET 2.2603 21.606 7.4023
          CHANNELS 6 Xposition Yposition Zposition Zrotation Xrotation Yrotation
          JOINT LeftShoulder
          {
            OFFSET 13.5163 -1.1332 -5.0146
            CHANNELS 6 Xposition Yposition Zposition Zrotation Xrotation Yrotation
            JOINT LeftElbow
            {
              OFFSET -0.0995 -28.05 -0.2431
              CHANNELS 6 Xposition Yposition Zposition Zrotation Xrotation Yrotation
              JOINT LeftWrist
              {
                OFFSET 0.0679 -23.3996 -0.1402
                CHANNELS 6 Xposition Yposition Zposition Zrotation Xrotation Yrotation
                JOINT LeftFinger1
                {
                  OFFSET 0.7932 -9.069 2.5189
                  CHANNELS 6 Xposition Yposition Zposition Zrotation Xrotation Yrotation
                  JOINT LeftFinger11
                  {
                    OFFSET -0.8272 -3.3923 0.5977
                    CHANNELS 6 Xposition Yposition Zposition Zrotation Xrotation Yrotation
                    JOINT LeftFinger12
                    {
                      OFFSET -0.5649 -2.3158 0.4082
                      CHANNELS 6 Xposition Yposition Zposition Zrotation Xrotation Yrotation
                      End Site
                      {
                        OFFSET -0.4919 -1.6479 0.2673
                      }
                    }
                  }
                }
                JOINT LeftFinger2
                {
                  OFFSET 0.9159 -9.2044 0.2193
                  CHANNELS 6 Xposition Yposition Zposition Zrotation Xrotation Yrotation
                  JOINT LeftFinger21
                  {
                    OFFSET 0.0117 -4.1944 -0.0248
                    CHANNELS 6 Xposition Yposition Zposition Zrotation Xrotation Yrotation
                    JOINT LeftFinger22
                    {
                      OFFSET 0.0071 -2.3249 -0.0142
                      CHANNELS 6 Xposition Yposition Zposition Zrotation Xrotation Yrotation
                      End Site
                      {
                        OFFSET -0.1475 -2.0882 0.0028
                      }
                    }
                  }
                }
                JOINT LeftFinger3
                {
                  OFFSET 0.6113 -8.7231 -2.0637
                  CHANNELS 6 Xposition Yposition Zposition Zrotation Xrotation Yrotation
                  JOINT LeftFinger31
                  {
                    OFFSET -0.1927 -3.8059 -0.2383
                    CHANNELS 6 Xposition Yposition Zposition Zrotation Xrotation Yrotation
                    JOINT LeftFinger32
                    {
                      OFFSET -0.1091 -2.1688 -0.1362
                      CHANNELS 6 Xposition Yposition Zposition Zrotation Xrotation Yrotation
                      End Site
                      {
                        OFFSET -0.2358 -1.9176 -0.0906
                      }
                    }
                  }
                }
                JOINT LeftFinger4
                {
                  OFFSET -0.6151 -8.0947 -3.5641
                  CHANNELS 6 Xposition Yposition Zposition Zrotation Xrotation Yrotation
                  JOINT LeftFinger41
                  {
                    OFFSET -0.4882 -2.341 -0.6462
                    CHANNELS 6 Xposition Yposition Zposition Zrotation Xrotation Yrotation
                    JOINT LeftFinger42
                    {
                      OFFSET -0.3575 -1.7167 -0.4742
                      CHANNELS 6 Xposition Yposition Zposition Zrotation Xrotation Yrotation
                      End Site
                      {
                        OFFSET -0.4187 -1.5237 -0.3496
                      }
                    }
                  }
                }
                JOINT LeftFinger0
                {
                  OFFSET -1.42 -1.8761 1.4223
                  CHANNELS 6 Xposition Yposition Zposition Zrotation Xrotation Yrotation
                  JOINT LeftFinger01
                  {
                    OFFSET -1.1471 -3.4929 2.6334
                    CHANNELS 6 Xposition Yposition Zposition Zrotation Xrotation Yrotation
                    JOINT LeftFinger02
                    {
                      OFFSET -0.823 -2.3 1.6571
                      CHANNELS 6 Xposition Yposition Zposition Zrotation Xrotation Yrotation
                      End Site
                      {
                        OFFSET -0.5822 -1.6914 1.1582
                      }
                    }
                  }
                }
              }
            }
          }
        }
        JOINT RightCollar
        {
          OFFSET -2.2603 21.606 7.4023
          CHANNELS 6 Xposition Yposition Zposition Zrotation Xrotation Yrotation
          JOINT RightShoulder
          {
            OFFSET -13.5187 -1.1334 -5.0155
            CHANNELS 6 Xposition Yposition Zposition Zrotation Xrotation Yrotation
            JOINT RightElbow
            {
              OFFSET 0.0994 -28.0499 -0.2431
              CHANNELS 6 Xposition Yposition Zposition Zrotation Xrotation Yrotation
              JOINT RightWrist
              {
                OFFSET -0.0679 -23.3996 -0.1402
                CHANNELS 6 Xposition Yposition Zposition Zrotation Xrotation Yrotation
                JOINT RightFinger1
                {
                  OFFSET -0.7932 -9.0691 2.5189
                  CHANNELS 6 Xposition Yposition Zposition Zrotation Xrotation Yrotation
                  JOINT RightFinger11
                  {
                    OFFSET 0.8272 -3.3923 0.5977
                    CHANNELS 6 Xposition Yposition Zposition Zrotation Xrotation Yrotation
                    JOINT RightFinger12
                    {
                      OFFSET 0.565 -2.3158 0.4082
                      CHANNELS 6 Xposition Yposition Zposition Zrotation Xrotation Yrotation
                      End Site
                      {
                        OFFSET 0.4919 -1.6479 0.2673
                      }
                    }
                  }
                }
                JOINT RightFinger2
                {
                  OFFSET -0.916 -9.2044 0.2193
                  CHANNELS 6 Xposition Yposition Zposition Zrotation Xrotation Yrotation
                  JOINT RightFinger21
                  {
                    OFFSET -0.0117 -4.1944 -0.0248
                    CHANNELS 6 Xposition Yposition Zposition Zrotation Xrotation Yrotation
                    JOINT RightFinger22
                    {
                      OFFSET -0.0071 -2.3249 -0.0142
                      CHANNELS 6 Xposition Yposition Zposition Zrotation Xrotation Yrotation
                      End Site
                      {
                        OFFSET 0.1475 -2.0882 0.0028
                      }
                    }
                  }
                }
                JOINT RightFinger3
                {
                  OFFSET -0.6113 -8.7231 -2.0637
                  CHANNELS 6 Xposition Yposition Zposition Zrotation Xrotation Yrotation
                  JOINT RightFinger31
                  {
                    OFFSET 0.1927 -3.8059 -0.2383
                    CHANNELS 6 Xposition Yposition Zposition Zrotation Xrotation Yrotation
                    JOINT RightFinger32
                    {
                      OFFSET 0.1091 -2.1688 -0.1362
                      CHANNELS 6 Xposition Yposition Zposition Zrotation Xrotation Yrotation
                      End Site
                      {
                        OFFSET 0.2358 -1.9176 -0.0906
                      }
                    }
                  }
                }
                JOINT RightFinger4
                {
                  OFFSET 0.6151 -8.0947 -3.564
                  CHANNELS 6 Xposition Yposition Zposition Zrotation Xrotation Yrotation
                  JOINT RightFinger41
                  {
                    OFFSET 0.4882 -2.341 -0.6462
                    CHANNELS 6 Xposition Yposition Zposition Zrotation Xrotation Yrotation
                    JOINT RightFinger42
                    {
                      OFFSET 0.3574 -1.7166 -0.4742
                      CHANNELS 6 Xposition Yposition Zposition Zrotation Xrotation Yrotation
                      End Site
                      {
                        OFFSET 0.4187 -1.5237 -0.3496
                      }
                    }
                  }
                }
                JOINT RightFinger0
                {
                  OFFSET 1.4199 -1.8761 1.4221
                  CHANNELS 6 Xposition Yposition Zposition Zrotation Xrotation Yrotation
                  JOINT RightFinger01
                  {
                    OFFSET 1.1472 -3.4929 2.6336
                    CHANNELS 6 Xposition Yposition Zposition Zrotation Xrotation Yrotation
                    JOINT RightFinger02
                    {
                      OFFSET 0.8229 -2.3 1.6571
                      CHANNELS 6 Xposition Yposition Zposition Zrotation Xrotation Yrotation
                      End Site
                      {
                        OFFSET 0.5822 -1.6914 1.1582
                      }
                    }
                  }
                }
              }
            }
          }
        }
      }
    }
  }
  JOINT RightHip
  {
    OFFSET -9.412 3.9771 -0.7758
    CHANNELS 6 Xposition Yposition Zposition Zrotation Xrotation Yrotation
    JOINT RightKnee
    {
      OFFSET -0.7531 -40.938 0
      CHANNELS 6 Xposition Yposition Zposition Zrotation Xrotation Yrotation
      JOINT RightAnkle
      {
        OFFSET 0 -40.1986 0
        CHANNELS 6 Xposition Yposition Zposition Zrotation Xrotation Yrotation
        JOINT RightToe
        {
          OFFSET 0 -4.4182 9.239
          CHANNELS 6 Xposition Yposition Zposition Zrotation Xrotation Yrotation
          End Site
          {
            OFFSET 0 0 6.1981
          }
        }
      }
    }
  }
  JOINT LeftHip
  {
    OFFSET 9.4119 3.9773 -0.7758
    CHANNELS 6 Xposition Yposition Zposition Zrotation Xrotation Yrotation
    JOINT LeftKnee
    {
      OFFSET 0.7532 -40.9383 0
      CHANNELS 6 Xposition Yposition Zposition Zrotation Xrotation Yrotation
      JOINT LeftAnkle
      {
        OFFSET 0 -40.1986 0
        CHANNELS 6 Xposition Yposition Zposition Zrotation Xrotation Yrotation
        JOINT LeftToe
        {
          OFFSET 0 -4.4182 9.239
          CHANNELS 6 Xposition Yposition Zposition Zrotation Xrotation Yrotation
          End Site
          {
            OFFSET 0 0 6.1981
          }
        }
      }
    }
  }
}
MOTION
Frames:	4
Frame Time:	0.0333333
5.72205e-005 65.662 3.42586 0 0 -0 0 8.7983 -4.7612 0 0 -0 0 8.0291 0.4195 0 0 -0 0 9.9351 -2.2114 0 0 -0 0 22.3885 -0.4656 0 0 -0 -0.0001 12.643 3.4389 0 0 -0 2.2603 21.606 7.4023 0 0 -12.5014 13.5163 -1.1332 -5.0146 88.1196 14.2451 10.6914 -0.0995 -28.05 -0.2431 -0.00160068 -0.00239207 0.000740045 0.0679 -23.3996 -0.1402 -8.4365e-005 7.00714e-005 -9.52055e-007 0.7932 -9.069 2.5189 9.93923e-017 -1.98785e-016 -1.59028e-015 -0.8272 -3.3923 0.5977 9.93923e-017 -5.96354e-016 -1.59028e-015 -0.5649 -2.3158 0.4082 -9.93923e-017 -5.96354e-016 -1.59028e-015 0.9159 -9.2044 0.2193 9.93923e-017 -1.98785e-016 -1.59028e-015 0.0117 -4.1944 -0.0248 -0.0128176 0.00232552 8.52707e-005 0.0071 -2.3249 -0.0142 9.93923e-017 5.96354e-016 -0 0.6113 -8.7231 -2.0637 9.93923e-017 -1.98785e-016 -1.59028e-015 -0.1927 -3.8059 -0.2383 -0.0160551 0.00299681 0.000857156 -0.1091 -2.1688 -0.1362 -2.48481e-016 0 3.18055e-015 -0.6151 -8.0947 -3.5641 9.93923e-017 -1.98785e-016 -1.59028e-015 -0.4882 -2.341 -0.6462 -0.0125865 0.0031206 0.00282719 -0.3575 -1.7167 -0.4742 0 1.98785e-016 -0 -1.42 -1.8761 1.4223 9.93923e-017 -1.98785e-016 -1.59028e-015 -1.1471 -3.4929 2.6334 9.93923e-017 -5.96354e-016 -1.59028e-015 -0.823 -2.3 1.6571 -9.93923e-017 -5.96354e-016 -1.59028e-015 -2.2603 21.606 7.4023 -0.865644 0.16582 7.03859 -13.5187 -1.1334 -5.0155 -88.0329 10.2057 -10.5567 0.0994 -28.0499 -0.2431 0.0015593 -0.00248883 -0.000788628 -0.0679 -23.3996 -0.1402 7.87605e-005 4.10553e-005 1.24965e-005 -0.7932 -9.0691 2.5189 -3.97569e-016 -7.95139e-016 3.18055e-015 0.8272 -3.3923 0.5977 -1.98785e-016 -3.97569e-016 3.18055e-015 0.565 -2.3158 0.4082 -1.98785e-016 0 3.18055e-015 -0.916 -9.2044 0.2193 -3.97569e-016 -7.95139e-016 3.18055e-015 -0.0117 -4.1944 -0.0248 0.0129473 0.00231697 -8.70038e-005 -0.0071 -2.3249 -0.0142 9.93923e-017 -7.95139e-016 1.59028e-015 -0.6113 -8.7231 -2.0637 -3.97569e-016 -7.95139e-016 3.18055e-015 0.1927 -3.8059 -0.2383 0.0163314 0.00303369 -0.000872333 0.1091 -2.1688 -0.1362 3.97569e-016 7.95139e-016 -3.18055e-015 0.6151 -8.0947 -3.564 -3.97569e-016 -7.95139e-016 3.18055e-015 0.4882 -2.341 -0.6462 0.0145763 0.00367772 -0.00326275 0.3574 -1.7166 -0.4742 9.93923e-017 -3.97569e-016 -0 1.4199 -1.8761 1.4221 -3.97569e-016 -7.95139e-016 3.18055e-015 1.1472 -3.4929 2.6336 -1.98785e-016 -3.97569e-016 3.18055e-015 0.8229 -2.3 1.6571 -1.98785e-016 0 3.18055e-015 -9.412 3.9771 -0.7758 3.42482 1.32465 -0.0626183 -0.7531 -40.938 0 0.000117508 0.717283 0.000978199 0 -40.1986 0 -3.4257 -2.04197 -0.0604716 8.88178e-016 -4.4182 9.239 6.47761e-025 0 -0 9.4119 3.9773 -0.7758 -3.42483 1.34017 0.0627307 0.7532 -40.9383 -2.22045e-016 -0.000193936 0.682302 -0.0013703 -8.88179e-016 -40.1986 0 3.42574 -2.02253 0.0595886 -8.88178e-016 -4.4182 9.239 -8.45714e-024 0 -7.40531e-025 
4.0527e-005 19.0798 -9.28192 0 2.96278 -0 0 8.7983 -4.7612 0 10.6612 -0 0 8.0291 0.4195 0 21.3225 -0 0 9.9351 -2.2114 0 21.3225 -0 0 22.3885 -0.4656 -0 -19.9738 -0 -0.0001 12.643 3.4389 0.00833832 -8.86644 -0.0630199 2.2603 21.606 7.4023 -9.62647e-007 -7.40929 -12.5014 13.5163 -1.1332 -5.0146 137.645 -41.2602 37.7469 -0.0995 -28.05 -0.2431 -1.47582 -8.01416 -0.361004 0.0679 -23.3996 -0.1402 -5.51196e-005 0.000212818 1.48047e-005 0.7932 -9.069 2.5189 -6.36111e-015 -6.36111e-015 1.19271e-015 -0.8272 -3.3923 0.5977 0 0 -1.19271e-015 -0.5649 -2.3158 0.4082 5.51738e-032 -1.59028e-015 1.98785e-015 0.9159 -9.2044 0.2193 -6.36111e-015 -6.36111e-015 1.19271e-015 0.0117 -4.1944 -0.0248 -0.0127829 0.00232572 9.27556e-005 0.0071 -2.3249 -0.0142 -6.36111e-015 0 -7.95139e-016 0.6113 -8.7231 -2.0637 -6.36111e-015 -6.36111e-015 1.19271e-015 -0.1927 -3.8059 -0.2383 -0.0161213 0.00300839 0.000871435 -0.1091 -2.1688 -0.1362 -0 0 1.59028e-015 -0.6151 -8.0947 -3.5641 -6.36111e-015 -6.36111e-015 1.19271e-015 -0.4882 -2.341 -0.6462 -0.0125376 0.00311179 0.00282127 -0.3575 -1.7167 -0.4742 6.62086e-032 -3.18055e-015 1.19271e-015 -1.42 -1.8761 1.4223 -6.36111e-015 -6.36111e-015 1.19271e-015 -1.1471 -3.4929 2.6334 0 0 -1.19271e-015 -0.823 -2.3 1.6571 5.51738e-032 -1.59028e-015 1.98785e-015 -2.2603 21.606 7.4023 -0.872602 -7.24262 6.92607 -13.5187 -1.1334 -5.0155 -140.632 -42.9766 -43.4073 0.0994 -28.0499 -0.2431 1.44897 -8.01904 0.250824 -0.0679 -23.3996 -0.1402 2.85734e-005 0.000229347 -6.48192e-006 -0.7932 -9.0691 2.5189 0 0 -2.78299e-015 0.8272 -3.3923 0.5977 6.36111e-015 0 -7.95139e-016 0.565 -2.3158 0.4082 1.60364e-006 -6.6316e-006 3.02506e-007 -0.916 -9.2044 0.2193 0 0 -2.78299e-015 -0.0117 -4.1944 -0.0248 0.0129196 0.0023015 -8.47772e-005 -0.0071 -2.3249 -0.0142 3.18055e-015 -3.18055e-015 3.18055e-015 -0.6113 -8.7231 -2.0637 0 0 -2.78299e-015 0.1927 -3.8059 -0.2383 0.0163079 0.00301399 -0.000864624 0.1091 -2.1688 -0.1362 0 0 -0 0.6151 -8.0947 -3.564 0 0 -2.78299e-015 0.4882 -2.341 -0.6462 0.0145455 0.00366432 -0.00325297 0.3574 -1.7166 -0.4742 -8.82781e-032 1.59028e-015 3.18055e-015 1.4199 -1.8761 1.4221 0 0 -2.78299e-015 1.1472 -3.4929 2.6336 6.36111e-015 0 -7.95139e-016 0.8229 -2.3 1.6571 1.60364e-006 -6.6316e-006 3.02506e-007 -9.412 3.9771 -0.7758 -23.5074 -39.8593 -2.94451 -0.7531 -40.938 1.77636e-015 179.963 65.4369 177.037 0 -40.1986 -3.55271e-015 -1.40615 36.9207 -1.52932 0 -4.4182 9.239 9.50174e-006 -6.35999e-006 -2.37244e-006 9.4119 3.9773 -0.7758 23.5029 -39.8599 2.9399 0.7532 -40.9383 3.55271e-015 -179.963 65.4365 -177.037 0 -40.1986 3.55271e-015 1.40618 36.9202 1.52942 1.77636e-015 -4.4182 9.239 -7.77344e-007 6.36111e-015 -3.53071e-007 
3.9499e-005 -1.90474 -14.8702 0 4.29604 -0 0 8.7983 -4.7612 0 15.4824 -0 0 8.0291 0.4195 0 30.9649 -0 0 9.9351 -2.2114 0 30.9648 -0 0 22.3885 -0.4656 -0 -29.0948 -0 -0.0001 12.643 3.4389 -0.0127898 -12.9719 0.223644 2.2603 21.606 7.4023 -4.59199e-006 -10.7443 -12.5014 13.5163 -1.1332 -5.0146 141.469 -66.353 35.3986 -0.0995 -28.05 -0.2431 -2.16952 -11.612 -0.598035 0.0679 -23.3996 -0.1402 -6.99416e-005 0.000201012 6.75768e-006 0.7932 -9.069 2.5189 3.18055e-015 7.95139e-015 3.18055e-015 -0.8272 -3.3923 0.5977 0 6.36111e-015 -0 -0.5649 -2.3158 0.4082 6.36111e-015 4.77083e-015 3.18055e-015 0.9159 -9.2044 0.2193 3.18055e-015 7.95139e-015 3.18055e-015 0.0117 -4.1944 -0.0248 -0.0127977 0.0023124 8.5182e-005 0.0071 -2.3249 -0.0142 0 0 -3.18055e-015 0.6113 -8.7231 -2.0637 3.18055e-015 7.95139e-015 3.18055e-015 -0.1927 -3.8059 -0.2383 -0.0160709 0.00300036 0.000849756 -0.1091 -2.1688 -0.1362 3.18055e-015 3.18055e-015 -0 -0.6151 -8.0947 -3.5641 3.18055e-015 7.95139e-015 3.18055e-015 -0.4882 -2.341 -0.6462 -0.0125927 0.00312057 0.00283634 -0.3575 -1.7167 -0.4742 -1.32417e-031 4.77083e-015 1.59028e-015 -1.42 -1.8761 1.4223 3.18055e-015 7.95139e-015 3.18055e-015 -1.1471 -3.4929 2.6334 0 6.36111e-015 -0 -0.823 -2.3 1.6571 6.36111e-015 4.77083e-015 3.18055e-015 -2.2603 21.606 7.4023 -0.880603 -10.5773 6.87443 -13.5187 -1.1334 -5.0155 -151.67 -67.4776 -47.2848 0.0994 -28.0499 -0.2431 2.16898 -11.587 0.434758 -0.0679 -23.3996 -0.1402 3.93797e-005 0.000191444 1.16367e-006 -0.7932 -9.0691 2.5189 -9.54166e-015 -1.59028e-015 4.77083e-015 0.8272 -3.3923 0.5977 -6.36111e-015 -4.77083e-015 4.77083e-015 0.565 -2.3158 0.4082 -1.27222e-014 -1.59028e-015 7.95139e-015 -0.916 -9.2044 0.2193 -9.54166e-015 -1.59028e-015 4.77083e-015 -0.0117 -4.1944 -0.0248 0.0129851 0.00231884 -7.91613e-005 -0.0071 -2.3249 -0.0142 6.36111e-015 -1.59028e-015 3.18055e-015 -0.6113 -8.7231 -2.0637 -9.54166e-015 -1.59028e-015 4.77083e-015 0.1927 -3.8059 -0.2383 0.0163297 0.00303676 -0.000871907 0.1091 -2.1688 -0.1362 -4.789e-006 3.37538e-006 9.43406e-006 0.6151 -8.0947 -3.564 -9.54166e-015 -1.59028e-015 4.77083e-015 0.4882 -2.341 -0.6462 0.0145733 0.00368046 -0.00325593 0.3574 -1.7166 -0.4742 -9.54166e-015 4.77083e-015 1.59028e-015 1.4199 -1.8761 1.4221 -9.54166e-015 -1.59028e-015 4.77083e-015 1.1472 -3.4929 2.6336 -6.36111e-015 -4.77083e-015 4.77083e-015 0.8229 -2.3 1.6571 -1.27222e-014 -1.59028e-015 7.95139e-015 -9.412 3.9771 -0.7758 -33.8578 -55.7611 -10.7626 -0.7531 -40.938 1.77636e-015 179.668 17.2615 171.582 1.77636e-015 -40.1986 -3.55271e-015 6.86247 54.2674 -9.20757 0 -4.4182 9.239 -9.69075e-015 -3.18055e-015 7.95139e-016 9.4119 3.9773 -0.7758 33.9929 -55.7191 10.874 0.7532 -40.9383 1.06581e-014 -179.756 17.2864 -171.581 -1.77636e-015 -40.1986 0 -6.86281 54.2655 9.2078 -8.88179e-016 -4.4182 9.239 1.40886e-005 1.66154e-006 -6.88841e-007 
3.96701e-005 2.77084 -13.6723 0 3.99975 -0 0 8.7983 -4.7612 0 14.4631 -0 0 8.0291 0.4195 0 28.9264 -0 0 9.9351 -2.2114 0 28.9263 -0 0 22.3885 -0.4656 -0 -27.361 -0 -0.0001 12.643 3.4389 -0.0601604 -12.3158 0.860405 2.2603 21.606 7.4023 -5.44964e-007 -10.0032 -12.5014 13.5163 -1.1332 -5.0146 144 -60.8117 39.1854 -0.0995 -28.05 -0.2431 -2.00902 -10.8155 -0.541657 0.0679 -23.3996 -0.1402 -6.10146e-005 0.000200357 -5.45296e-006 0.7932 -9.069 2.5189 -6.36111e-015 4.77083e-015 -1.59028e-015 -0.8272 -3.3923 0.5977 9.54166e-015 1.59028e-015 -0 -0.5649 -2.3158 0.4082 0 3.18055e-015 -0 0.9159 -9.2044 0.2193 -6.36111e-015 4.77083e-015 -1.59028e-015 0.0117 -4.1944 -0.0248 -0.0128454 0.0023244 8.87586e-005 0.0071 -2.3249 -0.0142 -3.18055e-015 -6.36111e-015 1.11319e-014 0.6113 -8.7231 -2.0637 -6.36111e-015 4.77083e-015 -1.59028e-015 -0.1927 -3.8059 -0.2383 -0.0160729 0.00299088 0.000861028 -0.1091 -2.1688 -0.1362 1.90833e-014 -7.95139e-015 6.36111e-015 -0.6151 -8.0947 -3.5641 -6.36111e-015 4.77083e-015 -1.59028e-015 -0.4882 -2.341 -0.6462 -0.0126677 0.00314225 0.00285164 -0.3575 -1.7167 -0.4742 9.54166e-015 -3.18055e-015 1.59028e-015 -1.42 -1.8761 1.4223 -6.36111e-015 4.77083e-015 -1.59028e-015 -1.1471 -3.4929 2.6334 9.54166e-015 1.59028e-015 -0 -0.823 -2.3 1.6571 0 3.18055e-015 -0 -2.2603 21.606 7.4023 -0.878555 -9.83621 6.88599 -13.5187 -1.1334 -5.0155 -151.587 -61.8428 -48.7527 0.0994 -28.0499 -0.2431 1.96827 -10.8235 0.391327 -0.0679 -23.3996 -0.1402 4.32249e-005 0.000213327 -5.20888e-006 -0.7932 -9.0691 2.5189 -9.54166e-015 -4.77083e-015 4.77083e-015 0.8272 -3.3923 0.5977 8.82781e-032 -3.18055e-015 1.59028e-015 0.565 -2.3158 0.4082 -6.36111e-015 -4.77083e-015 3.18055e-015 -0.916 -9.2044 0.2193 -9.54166e-015 -4.77083e-015 4.77083e-015 -0.0117 -4.1944 -0.0248 0.0129642 0.00231936 -8.79594e-005 -0.0071 -2.3249 -0.0142 -0 0 4.77083e-015 -0.6113 -8.7231 -2.0637 -9.54166e-015 -4.77083e-015 4.77083e-015 0.1927 -3.8059 -0.2383 0.0163173 0.00303759 -0.000879796 0.1091 -2.1688 -0.1362 1.59028e-014 7.95139e-015 -9.54166e-015 0.6151 -8.0947 -3.564 -9.54166e-015 -4.77083e-015 4.77083e-015 0.4882 -2.341 -0.6462 0.0146627 0.00370126 -0.00328943 0.3574 -1.7166 -0.4742 -1.79039e-006 -3.82647e-006 9.0128e-006 1.4199 -1.8761 1.4221 -9.54166e-015 -4.77083e-015 4.77083e-015 1.1472 -3.4929 2.6336 8.82781e-032 -3.18055e-015 1.59028e-015 0.8229 -2.3 1.6571 -6.36111e-015 -4.77083e-015 3.18055e-015 -9.412 3.9771 -0.7758 -32.3608 -52.942 -7.18454 -0.7531 -40.938 1.77636e-015 179.768 27.7283 174.154 0 -40.1986 -3.55271e-015 2.55263 51.1578 -5.19737 1.77636e-015 -4.4182 9.239 -1.6751e-006 1.12468e-006 -3.45718e-006 9.4119 3.9773 -0.7758 32.3237 -52.9531 7.15367 0.7532 -40.9383 0 -179.749 27.7193 -174.154 1.77636e-015 -40.1986 0 -2.55282 51.1567 5.19763 1.77636e-015 -4.4182 9.239 2.69935e-006 -7.32485e-007 -8.03278e-007 
